<svg width="123" height="62" viewBox="0 0 123 62" fill="none" xmlns="http://www.w3.org/2000/svg">
<path d="M14.784 61.44C14.336 61.44 13.856 61.44 13.344 61.44C12.896 61.44 12.512 61.408 12.192 61.344C11.616 61.28 10.656 61.056 9.31196 60.672C7.96796 60.288 6.55996 59.776 5.08796 59.136C3.67996 58.56 2.46396 57.888 1.43996 57.12C0.479955 56.352 -4.45843e-05 55.52 -4.45843e-05 54.624C-4.45843e-05 54.24 0.223955 54.048 0.671955 54.048C1.75996 54.048 2.84796 54.336 3.93596 54.912C5.08796 55.488 6.27196 55.84 7.48796 55.968C7.99996 56.032 8.54396 56.096 9.11996 56.16C9.75996 56.16 10.464 56.16 11.232 56.16C12.832 56.16 14.496 56.032 16.224 55.776C17.952 55.456 19.424 54.912 20.64 54.144C21.856 53.376 22.496 52.288 22.56 50.88C22.56 49.984 21.984 48.864 20.832 47.52C19.68 46.112 18.208 44.512 16.416 42.72C14.688 40.864 12.96 38.848 11.232 36.672C9.50396 34.432 8.03196 32.032 6.81596 29.472C5.66396 26.912 5.08796 24.256 5.08796 21.504C5.08796 18.048 5.91996 15.04 7.58396 12.48C9.24796 9.92002 11.424 7.84002 14.112 6.24002C16.8 4.57602 19.744 3.36002 22.944 2.59202C26.144 1.76002 29.28 1.34402 32.352 1.34402C33.888 1.34402 35.328 1.44002 36.672 1.63202C38.4 1.82402 40.256 2.27202 42.24 2.97602C44.288 3.61602 46.048 4.64002 47.52 6.04802C48.992 7.39202 49.728 9.18402 49.728 11.424C49.728 13.792 48.96 16.064 47.424 18.24C45.952 20.416 44.128 22.336 41.952 24C39.84 25.6 37.76 26.816 35.712 27.648C35.328 27.84 34.944 27.936 34.56 27.936C34.24 27.808 34.08 27.648 34.08 27.456C34.4 26.752 35.168 25.792 36.384 24.576C37.664 23.296 39.04 21.888 40.512 20.352C42.048 18.816 43.36 17.184 44.448 15.456C45.6 13.664 46.176 11.904 46.176 10.176C46.176 9.02402 45.76 8.16002 44.928 7.58402C44.096 6.94403 43.104 6.46402 41.952 6.14402C40.864 5.82402 39.904 5.60002 39.072 5.47202C38.688 5.40802 38.304 5.37602 37.92 5.37602C37.536 5.37602 37.12 5.37602 36.672 5.37602C33.792 5.37602 30.688 5.88802 27.36 6.91202C24.096 7.87202 20.992 9.24802 18.048 11.04C15.104 12.832 12.704 14.976 10.848 17.472C8.99196 19.904 8.06396 22.624 8.06396 25.632C8.06396 27.424 8.70396 29.344 9.98396 31.392C11.264 33.376 12.864 35.424 14.784 37.536C16.704 39.648 18.624 41.76 20.544 43.872C22.464 45.92 24.064 47.936 25.344 49.92C26.624 51.84 27.264 53.632 27.264 55.296C27.264 56.896 26.56 58.144 25.152 59.04C23.808 59.936 22.144 60.544 20.16 60.864C18.24 61.248 16.448 61.44 14.784 61.44ZM46.1992 57.792C45.6232 57.792 44.9192 57.664 44.0872 57.408C43.2552 57.152 42.8392 56.576 42.8392 55.68C42.8392 55.104 43.0952 54.432 43.6072 53.664C44.1832 52.832 44.8552 52.128 45.6232 51.552C46.3912 50.912 47.0952 50.592 47.7352 50.592C48.2472 50.592 48.7272 50.816 49.1752 51.264C49.6872 51.712 49.9112 52.256 49.8472 52.896C49.8472 53.216 49.5912 53.792 49.0792 54.624C48.6312 55.392 48.1192 56.128 47.5432 56.832C47.0312 57.472 46.5832 57.792 46.1992 57.792ZM78.9172 57.312C78.4692 57.312 77.7012 57.216 76.6132 57.024C75.5892 56.768 74.5972 56.48 73.6372 56.16C72.7412 55.776 72.2612 55.392 72.1972 55.008C72.1972 54.624 72.5492 54.368 73.2532 54.24C74.0212 54.112 74.7892 54.048 75.5572 54.048C76.3892 53.984 76.8692 53.952 76.9972 53.952C79.3652 53.952 82.0852 53.504 85.1572 52.608C88.2292 51.712 91.3972 50.464 94.6612 48.864C97.9252 47.264 101.061 45.408 104.069 43.296C107.077 41.184 109.765 38.88 112.133 36.384C114.565 33.824 116.421 31.2 117.701 28.512C118.981 25.824 119.461 23.136 119.141 20.448C118.757 17.12 117.765 14.432 116.165 12.384C114.629 10.272 112.645 8.64002 110.213 7.48803C107.845 6.27202 105.253 5.40802 102.437 4.89602C99.6852 4.38402 96.9012 4.06402 94.0852 3.93603C91.2692 3.80802 88.6452 3.74402 86.2132 3.74402C83.8452 3.74402 81.4132 3.80802 78.9172 3.93603C76.4212 4.06402 74.0852 4.48002 71.9092 5.18402C71.2692 5.37602 70.6292 5.56802 69.9892 5.76003C69.3492 5.95202 68.6772 6.04802 67.9732 6.04802C67.9092 6.04802 67.7172 6.04802 67.3972 6.04802C67.0772 5.98402 66.9172 5.85602 66.9172 5.66402C66.7892 4.76802 67.2052 4.00002 68.1652 3.36002C69.1252 2.72002 70.3412 2.17602 71.8132 1.72803C73.3492 1.28002 74.9172 0.928022 76.5172 0.672022C78.1812 0.416021 79.6852 0.256021 81.0292 0.192022C82.3732 0.064024 83.3332 2.47955e-05 83.9092 2.47955e-05C86.9172 2.47955e-05 90.0852 0.160025 93.4132 0.480024C96.7412 0.736025 100.037 1.31203 103.301 2.20802C106.565 3.04002 109.573 4.25602 112.325 5.85602C115.077 7.45602 117.349 9.56802 119.141 12.192C120.933 14.816 122.053 18.08 122.501 21.984C122.565 22.368 122.597 22.752 122.597 23.136C122.597 23.52 122.597 23.872 122.597 24.192C122.597 28.032 121.637 31.648 119.717 35.04C117.861 38.368 115.333 41.408 112.133 44.16C108.997 46.848 105.509 49.184 101.669 51.168C97.8292 53.152 93.9252 54.688 89.9572 55.776C85.9892 56.8 82.3092 57.312 78.9172 57.312ZM66.9172 59.328C66.0852 59.328 65.3812 58.944 64.8052 58.176C64.2292 57.472 63.8132 56.64 63.5572 55.68C63.3012 54.72 63.1732 53.984 63.1732 53.472C63.1732 51.936 63.6532 49.728 64.6132 46.848C65.6372 43.904 66.9492 40.64 68.5492 37.056C70.2132 33.408 72.0372 29.76 74.0212 26.112C76.0692 22.4 78.0852 19.008 80.0692 15.936C82.1172 12.8 84.0372 10.304 85.8292 8.44802C87.6212 6.52802 89.0932 5.56802 90.2452 5.56802C90.8852 5.56802 91.7812 5.88802 92.9332 6.52802C94.0852 7.16802 94.6932 7.84002 94.7572 8.54402C94.8212 8.80002 94.1172 9.79202 92.6452 11.52C91.2372 13.184 89.4132 15.36 87.1732 18.048C84.9332 20.672 82.5652 23.584 80.0692 26.784C77.6372 29.984 75.3332 33.248 73.1572 36.576C70.9812 39.904 69.2532 43.104 67.9732 46.176C66.6932 49.184 66.1812 51.84 66.4372 54.144C66.5012 54.528 66.5972 54.848 66.7252 55.104C66.8532 55.36 67.1412 55.488 67.5892 55.488C68.2932 55.488 68.9012 55.296 69.4132 54.912C69.9252 54.464 70.2772 54.24 70.4692 54.24C70.5972 54.24 70.6612 54.336 70.6612 54.528C70.7252 54.656 70.7572 54.72 70.7572 54.72C70.8852 55.808 70.5332 56.864 69.7012 57.888C68.9332 58.848 68.0052 59.328 66.9172 59.328Z" fill="#DC604C"/>
</svg>
